<svg width="29" height="34" viewBox="0 0 29 34" fill="none" xmlns="http://www.w3.org/2000/svg">
<g clip-path="url(#clip0_207_24)">
<path d="M26.213 0H2.78695C1.24776 0 0 1.26372 0 2.8226V31.128C0 32.6869 1.24776 33.9506 2.78695 33.9506H26.213C27.7522 33.9506 29 32.6869 29 31.128V2.8226C29 1.26372 27.7522 0 26.213 0Z" fill="#378972"/>
<path d="M29.0001 33.9996C16.9413 33.5956 7.28623 23.4624 7.28623 11.0024C7.28623 9.89985 7.18868 8.80962 7.50396 7.78113C7.75478 7.1531 8.56822 6.72266 9.2789 6.72266C10.0871 6.72266 10.9789 7.44771 10.9284 8.06516C10.802 8.958 10.738 9.85877 10.7368 10.7607C10.7368 21.2326 18.8573 29.7621 29.0001 30.1009" fill="white"/>
<path d="M0 33.9996C12.0588 33.5956 21.7139 23.4624 21.7139 11.0024C21.7139 9.89985 21.8114 8.80962 21.4961 7.78113C21.2453 7.1531 20.4319 6.72266 19.7229 6.72266C18.9147 6.72266 18.0229 7.44771 18.0717 8.06516C18.1981 8.958 18.2621 9.85877 18.2633 10.7607C18.2633 21.2308 10.1428 29.7604 0 30.0991" fill="white"/>
</g>
<defs>
<clipPath id="clip0_207_24">
<rect width="29" height="34" fill="white"/>
</clipPath>
</defs>
</svg>
